<svg width="20" height="20" viewBox="0 0 20 20" fill="none" xmlns="http://www.w3.org/2000/svg">
  <path d="M6.25 8.75V6.875C6.25 4.804 7.929 3.125 10 3.125C12.071 3.125 13.75 4.804 13.75 6.875V8.75" stroke="#717171" stroke-width="1.75" stroke-linecap="round"/>
  <path fill-rule="evenodd" clip-rule="evenodd" d="M5 8.75H15C15.69 8.75 16.25 9.31 16.25 10V15.625C16.25 16.315 15.69 16.875 15 16.875H5C4.31 16.875 3.75 16.315 3.75 15.625V10C3.75 9.31 4.31 8.75 5 8.75ZM10 11.875C10.518 11.875 10.938 12.295 10.938 12.813V13.438C10.938 13.955 10.518 14.375 10 14.375C9.482 14.375 9.063 13.955 9.063 13.438V12.813C9.063 12.295 9.482 11.875 10 11.875Z" fill="#717171"/>
</svg>
