<svg width="85" height="85" viewBox="0 0 85 85" fill="none" xmlns="http://www.w3.org/2000/svg"><rect width="85" height="85" rx="42.5" fill="#131313"/><path d="M15.146 53V32.7H28.138V35.6H18.568V41.023H26.398V43.894H18.568V50.1H28.138V53H15.146ZM39.3843 53.464C33.5553 53.464 29.4663 49.085 29.4663 42.85C29.4663 36.615 33.5553 32.236 39.3843 32.236C45.2133 32.236 49.3023 36.615 49.3023 42.85C49.3023 49.085 45.2133 53.464 39.3843 53.464ZM39.3843 50.564C43.2123 50.564 45.8803 47.432 45.8803 42.85C45.8803 38.268 43.2123 35.136 39.3843 35.136C35.5273 35.136 32.8883 38.268 32.8883 42.85C32.8883 47.432 35.5273 50.564 39.3843 50.564ZM60.9433 53.464C55.1723 53.464 51.0543 49.027 51.0543 42.85C51.0543 36.673 55.1723 32.236 60.9143 32.236C65.9313 32.236 69.5273 35.6 69.9333 40.704L66.5113 40.994C66.0473 37.34 63.9593 35.165 60.9143 35.165C57.1733 35.165 54.4763 38.413 54.4763 42.879C54.4763 47.345 57.1733 50.564 60.9143 50.564C63.9593 50.564 66.0473 48.418 66.5113 44.851L69.9333 45.141C69.4983 50.158 65.9023 53.464 60.9433 53.464Z" fill="white"/></svg>
