<svg preserveAspectRatio="none" width="100%" height="100%" overflow="visible" style="display: block;" viewBox="0 0 57.4359 56" fill="none" xmlns="http://www.w3.org/2000/svg">
<g id="Frame" clip-path="url(#clip0_0_28)">
<path id="Vector" d="M10.1709 0H47.265C52.8889 0 57.4359 4.54701 57.4359 10.1709V45.8291C57.4359 51.453 52.8889 56 47.265 56H10.1709C4.54701 56 0 51.453 0 45.8291V10.1709C0 4.54701 4.54701 0 10.1709 0Z" fill="var(--fill-0, #470137)"/>
<path id="Vector_2" d="M30.2016 14.7181L23.0221 26.5643L30.6802 39.1284C30.7281 39.2241 30.752 39.3198 30.7281 39.4156C30.7041 39.5113 30.6084 39.4395 30.4648 39.4634H24.9845C24.6016 39.4634 24.3383 39.4395 24.1708 39.2002C23.6682 38.195 23.1417 37.2138 22.6392 36.2087C22.1366 35.2275 21.5862 34.2224 21.0118 33.1933C20.4375 32.1643 19.8631 31.1352 19.2888 30.0822H19.2409C18.7383 31.1113 18.1879 32.1403 17.6375 33.1694C17.087 34.1985 16.5366 35.2275 16.0101 36.2326C15.4597 37.2378 14.9093 38.2668 14.3588 39.248C14.2631 39.4873 14.0717 39.5113 13.8084 39.5113H8.54345C8.44773 39.5113 8.37593 39.5591 8.37593 39.4395C8.352 39.3438 8.37593 39.248 8.4238 39.1762L15.8665 26.9711L8.61525 14.6942C8.54345 14.5985 8.51952 14.5027 8.56739 14.4549C8.61525 14.3831 8.71098 14.3591 8.8067 14.3591H14.2392C14.3588 14.3591 14.4785 14.3831 14.5742 14.407C14.67 14.4549 14.7417 14.5267 14.8135 14.6224C15.2682 15.6514 15.7947 16.6805 16.3452 17.7096C16.9195 18.7386 17.47 19.7438 18.0682 20.7489C18.6426 21.754 19.1691 22.7591 19.6717 23.7882H19.7195C20.2221 22.7352 20.7486 21.7061 21.2751 20.701C21.8016 19.6959 22.352 18.6908 22.9024 17.6856C23.4529 16.6805 23.9794 15.6514 24.5058 14.6703C24.5298 14.5745 24.5776 14.4788 24.6494 14.4309C24.7452 14.3831 24.8409 14.3591 24.9605 14.3831H30.0101C30.1298 14.3591 30.2494 14.4309 30.2734 14.5506C30.2973 14.5745 30.2494 14.6703 30.2016 14.7181ZM41.258 39.966C39.487 39.9899 37.7161 39.6309 36.1127 38.8891C34.605 38.195 33.3605 37.0463 32.499 35.6344C31.6135 34.1745 31.1828 32.3557 31.1828 30.1779C31.1588 28.407 31.6135 26.66 32.499 25.1284C33.4084 23.5728 34.7247 22.2805 36.3041 21.419C37.9794 20.4856 39.9896 20.0309 42.3588 20.0309C42.4785 20.0309 42.646 20.0309 42.8614 20.0549C43.0768 20.0788 43.3161 20.0788 43.6033 20.1027V12.5403C43.6033 12.3728 43.6751 12.2771 43.8426 12.2771H48.7007C48.8204 12.2532 48.9161 12.3489 48.94 12.4446V35.2754C48.94 35.7061 48.964 36.1848 48.9879 36.7113C49.0358 37.2138 49.0597 37.6925 49.0836 38.0993C49.0836 38.2668 49.0118 38.4104 48.8443 38.4822C47.5999 39.0087 46.2836 39.3916 44.9435 39.6309C43.7229 39.8463 42.5024 39.966 41.258 39.966ZM43.6033 35.1797V24.6497C43.3879 24.6019 43.1725 24.554 42.9571 24.5301C42.6939 24.5061 42.4306 24.4822 42.1674 24.4822C41.2341 24.4822 40.3007 24.6737 39.4631 25.1044C38.6494 25.5113 37.9554 26.1096 37.4289 26.8754C36.9024 27.6412 36.6392 28.6703 36.6392 29.9147C36.6153 30.7523 36.7588 31.5899 37.046 32.3797C37.2853 33.0258 37.6443 33.6002 38.1229 34.0788C38.5776 34.5096 39.1281 34.8446 39.7503 35.0361C40.3964 35.2514 41.0665 35.3472 41.7366 35.3472C42.0956 35.3472 42.4306 35.3232 42.7417 35.2993C43.0529 35.3232 43.3161 35.2754 43.6033 35.1797Z" fill="var(--fill-0, #FF61F6)"/>
</g>
<defs>
<clipPath id="clip0_0_28">
<rect width="57.4359" height="56" fill="white"/>
</clipPath>
</defs>
</svg>
