<svg preserveAspectRatio="none" width="100%" height="100%" overflow="visible" style="display: block;" viewBox="0 0 39.5061 56.0007" fill="none" xmlns="http://www.w3.org/2000/svg">
<g id="Group">
<path id="Vector" d="M9.87652 56.0006C15.3284 56.0006 19.7531 51.8192 19.7531 46.6672V37.3339H9.87652C4.42469 37.3339 0 41.5152 0 46.6672C0 51.8192 4.42469 56.0006 9.87652 56.0006Z" fill="var(--fill-0, #0ACF83)"/>
<path id="Vector_2" d="M0 27.9996C0 22.8476 4.42469 18.6663 9.87652 18.6663H19.7531V37.333H9.87652C4.42469 37.333 0 33.1516 0 27.9996Z" fill="var(--fill-0, #A259FF)"/>
<path id="Vector_3" d="M0 9.33331C0 4.18133 4.42469 0 9.87652 0H19.7531V18.6667H9.87652C4.42469 18.6667 0 14.4853 0 9.33331Z" fill="var(--fill-0, #F24E1E)"/>
<path id="Vector_4" d="M19.753 0H29.6296C35.0814 0 39.5061 4.18133 39.5061 9.33331C39.5061 14.4853 35.0814 18.6667 29.6296 18.6667H19.753V0Z" fill="var(--fill-0, #FF7262)"/>
<path id="Vector_5" d="M39.5061 27.9996C39.5061 33.1516 35.0814 37.333 29.6296 37.333C24.1777 37.333 19.753 33.1516 19.753 27.9996C19.753 22.8476 24.1777 18.6663 29.6296 18.6663C35.0814 18.6663 39.5061 22.8476 39.5061 27.9996Z" fill="var(--fill-0, #1ABCFE)"/>
</g>
</svg>
