<svg preserveAspectRatio="none" width="100%" height="100%" overflow="visible" style="display: block;" viewBox="0 0 59.709 44.7929" fill="none" xmlns="http://www.w3.org/2000/svg">
<g id="Group">
<g id="Group_2">
<path id="Vector" d="M4.0712 44.7927H13.5703V21.7234L2.55766e-05 11.5457V40.7218C2.55766e-05 42.971 1.82185 44.793 4.0712 44.793V44.7927Z" fill="var(--fill-0, #4285F4)"/>
<path id="Vector_2" d="M46.1387 44.7927H55.6379C57.8871 44.7927 59.709 42.9709 59.709 40.7217V11.5457L46.1387 21.7234V44.7927Z" fill="var(--fill-0, #34A853)"/>
<path id="Vector_3" d="M46.1387 4.08216V21.7235L59.709 11.5458V6.11774C59.709 1.08656 53.9655 -1.78693 49.9384 1.23245L46.1387 4.08216Z" fill="var(--fill-0, #FBBC04)"/>
</g>
<path id="Vector_4" fill-rule="evenodd" clip-rule="evenodd" d="M13.5702 21.7233V4.08197L29.8545 16.2953L46.1387 4.08197V21.7233L29.8545 33.9365L13.5702 21.7233Z" fill="var(--fill-0, #EA4335)"/>
<path id="Vector_5" d="M1.27883e-05 6.11767V11.5457L13.5703 21.7234V4.08208L9.77059 1.23238C5.7435 -1.78701 1.27883e-05 1.08649 1.27883e-05 6.11744V6.11767Z" fill="var(--fill-0, #C5221F)"/>
</g>
</svg>
