<svg preserveAspectRatio="none" width="100%" height="100%" overflow="visible" style="display: block;" viewBox="0 0 61.9589 50.9819" fill="none" xmlns="http://www.w3.org/2000/svg">
<g id="Group">
<path id="Vector" d="M35.0507 25.4906L41.0909 32.3949L49.2138 37.5851L50.6268 25.5342L49.2138 13.755L40.9353 18.3145L35.0507 25.4906Z" fill="var(--fill-0, #00832D)"/>
<path id="Vector_2" d="M0 36.4642V46.7334C0 49.0781 1.90329 50.9819 4.24853 50.9819H14.5177L16.6441 43.2228L14.5177 36.4642L7.47231 34.3378L0 36.4642Z" fill="var(--fill-0, #0066DA)"/>
<path id="Vector_3" d="M14.5177 0L0 14.5177L7.4728 16.639L14.5177 14.5177L16.6054 7.85108L14.5177 0Z" fill="var(--fill-0, #E94235)"/>
<path id="Vector_4" d="M0 36.4671H14.5174V14.5163H0V36.4671Z" fill="var(--fill-0, #2684FC)"/>
<path id="Vector_5" d="M58.4873 6.14573L49.2132 13.7541V37.5839L58.5256 45.2218C59.9196 46.3138 61.9589 45.3186 61.9589 43.5465V7.78715C61.9589 5.99543 59.871 5.00506 58.4871 6.14597" fill="var(--fill-0, #00AC47)"/>
<path id="Vector_6" d="M35.0507 25.4898V36.4628H14.5177V50.9805H44.9656C47.3108 50.9805 49.2139 49.0767 49.2139 46.732V37.5843L35.0507 25.4898Z" fill="var(--fill-0, #00AC47)"/>
<path id="Vector_7" d="M44.9656 0H14.5177V14.5177H35.0507V25.4907L49.2141 13.7548V4.24877C49.2141 1.90353 47.3108 0.000242026 44.9656 0.000242026" fill="var(--fill-0, #FFBA00)"/>
</g>
</svg>
