<svg preserveAspectRatio="none" width="100%" height="100%" overflow="visible" style="display: block;" viewBox="0 0 56.7 50.6598" fill="none" xmlns="http://www.w3.org/2000/svg">
<g id="Frame" clip-path="url(#clip0_0_46)">
<path id="Vector" d="M4.2868 43.4182L6.78731 47.7373C7.3069 48.6466 8.05381 49.361 8.93061 49.8806L17.861 34.4229H0.000198364C0.000198364 35.4296 0.259992 36.4363 0.77958 37.3455L4.2868 43.4182Z" fill="var(--fill-0, #0066DA)"/>
<path id="Vector_2" d="M28.3502 16.2368L19.4198 0.779057C18.543 1.29865 17.7961 2.01308 17.2765 2.92236L0.77958 31.4997C0.269548 32.3893 0.000877441 33.3969 0.000198364 34.4224H17.861L28.3502 16.2368Z" fill="var(--fill-0, #00AC47)"/>
<path id="Vector_3" d="M47.7697 49.8806C48.6465 49.361 49.3934 48.6466 49.913 47.7373L50.9522 45.9512L55.9207 37.3455C56.4403 36.4363 56.7001 35.4296 56.7001 34.4229H38.838L42.6388 41.8919L47.7697 49.8806Z" fill="var(--fill-0, #EA4335)"/>
<path id="Vector_4" d="M28.3501 16.2373L37.2805 0.779565C36.4037 0.259977 35.397 0.000183467 34.3579 0.000183467H22.3424C21.3032 0.000183467 20.2965 0.292452 19.4197 0.779565L28.3501 16.2373Z" fill="var(--fill-0, #00832D)"/>
<path id="Vector_5" d="M38.8394 34.4229H17.861L8.93061 49.8806C9.80741 50.4002 10.8141 50.66 11.8533 50.66H44.8471C45.8863 50.66 46.893 50.3677 47.7698 49.8806L38.8394 34.4229Z" fill="var(--fill-0, #2684FC)"/>
<path id="Vector_6" d="M47.6723 17.211L39.4238 2.92236C38.9043 2.01308 38.1573 1.29865 37.2805 0.779057L28.3501 16.2368L38.8393 34.4224H56.6677C56.6677 33.4157 56.4079 32.4089 55.8883 31.4997L47.6723 17.211Z" fill="var(--fill-0, #FFBA00)"/>
</g>
<defs>
<clipPath id="clip0_0_46">
<rect width="56.7" height="50.6598" fill="white"/>
</clipPath>
</defs>
</svg>
