<svg preserveAspectRatio="none" width="100%" height="100%" overflow="visible" style="display: block;" viewBox="0 0 55.3846 54" fill="none" xmlns="http://www.w3.org/2000/svg">
<g id="Group">
<path id="Vector" d="M45.5769 0H9.80768C4.39105 0 0 4.39105 0 9.80768V44.1923C0 49.6089 4.39105 54 9.80768 54H45.5769C50.9936 54 55.3846 49.6089 55.3846 44.1923V9.80768C55.3846 4.39105 50.9936 0 45.5769 0Z" fill="var(--fill-0, #330000)"/>
<path id="Vector_2" d="M26.8388 32.4062H18.2563L16.5101 37.8307C16.4864 37.9295 16.4288 38.0171 16.3474 38.0781C16.266 38.1392 16.1659 38.1699 16.0643 38.165H11.7173C11.4693 38.165 11.3827 38.0288 11.4572 37.7563L18.8879 16.3557C18.9623 16.1328 19.0366 15.879 19.1109 15.5941C19.2081 15.0983 19.2578 14.5945 19.2595 14.0894C19.2545 14.054 19.2577 14.018 19.269 13.9842C19.2803 13.9503 19.2993 13.9196 19.3245 13.8943C19.3498 13.8691 19.3806 13.8501 19.4144 13.8388C19.4483 13.8275 19.4842 13.8242 19.5196 13.8293H25.4269C25.6001 13.8293 25.6991 13.8912 25.7242 14.015L34.1582 37.7935C34.2325 38.0414 34.1581 38.1653 33.9352 38.165H29.1052C29.0223 38.1742 28.9388 38.1529 28.8704 38.105C28.8021 38.0572 28.7534 37.986 28.7337 37.905L26.8388 32.4062ZM19.5938 27.7248H25.4641C25.3156 27.2296 25.1421 26.6723 24.944 26.0529C24.7455 25.434 24.535 24.7714 24.3124 24.0651C24.0895 23.3593 23.8665 22.6533 23.6436 21.9474C23.4207 21.2414 23.2164 20.5603 23.0306 19.9039C22.8448 19.2479 22.6776 18.6473 22.5291 18.102H22.4919C22.2827 19.1054 22.0223 20.0975 21.7117 21.0743C21.3645 22.1889 21.0115 23.3283 20.6527 24.4924C20.2934 25.657 19.9404 26.7345 19.5938 27.7248Z" fill="var(--fill-0, #FF9A00)"/>
<path id="Vector_3" d="M39.1732 17.7676C38.7943 17.7829 38.4164 17.7179 38.0643 17.5771C37.7121 17.4362 37.3937 17.2226 37.1298 16.9503C36.8666 16.6661 36.6622 16.3327 36.5283 15.9693C36.3943 15.6058 36.3336 15.2195 36.3495 14.8325C36.336 14.4493 36.4035 14.0676 36.5475 13.7123C36.6915 13.357 36.909 13.036 37.1854 12.7705C37.4593 12.5076 37.7825 12.3017 38.1365 12.1646C38.4904 12.0274 38.8681 11.9619 39.2475 11.9717C40.1392 11.9717 40.839 12.2379 41.3467 12.7705C41.603 13.0472 41.8022 13.3717 41.9329 13.7256C42.0636 14.0794 42.1232 14.4556 42.1083 14.8325C42.1239 15.221 42.0612 15.6087 41.9239 15.9725C41.7867 16.3363 41.5778 16.6688 41.3096 16.9503C41.0292 17.2266 40.6946 17.4419 40.327 17.5826C39.9593 17.7233 39.5665 17.7862 39.1732 17.7676ZM36.6095 37.7935V20.034C36.6095 19.8111 36.7083 19.6996 36.9068 19.6996H41.4768C41.6748 19.6996 41.7738 19.811 41.774 20.034V37.7935C41.774 38.0414 41.6749 38.1652 41.4768 38.1651H36.944C36.7211 38.1651 36.6097 38.0412 36.6095 37.7935Z" fill="var(--fill-0, #FF9A00)"/>
</g>
</svg>
