<svg preserveAspectRatio="none" width="100%" height="100%" overflow="visible" style="display: block;" viewBox="0 0 56 56.875" fill="none" xmlns="http://www.w3.org/2000/svg">
<g id="Frame" clip-path="url(#clip0_0_53)">
<path id="Vector" d="M52.3215 23.232C52.9563 21.3205 53.1759 19.2954 52.9655 17.2922C52.7552 15.289 52.1198 13.3538 51.1018 11.6158C48.0052 6.22554 41.7813 3.45289 35.7029 4.75576C34.0199 2.88367 31.8739 1.48738 29.4805 0.707108C27.0871 -0.0731634 24.5305 -0.20994 22.0675 0.310514C19.6045 0.830968 17.3218 1.99033 15.4486 3.67216C13.5755 5.354 12.1778 7.49909 11.396 9.89201C9.42242 10.2967 7.55791 11.118 5.92712 12.301C4.29633 13.484 2.93683 15.0015 1.93948 16.752C-1.19083 22.1337 -0.480112 28.9219 3.6967 33.5389C3.05958 35.4495 2.83781 37.4742 3.04624 39.4775C3.25467 41.4807 3.88849 43.4164 4.90529 45.1549C8.00586 50.5471 14.2337 53.3196 20.3154 52.0149C21.6525 53.5206 23.2955 54.7238 25.1346 55.544C26.9737 56.3642 28.9666 56.7827 30.9803 56.7714C37.2105 56.7769 42.7302 52.755 44.6334 46.8225C46.6067 46.4171 48.4709 45.5955 50.1015 44.4125C51.7322 43.2296 53.0918 41.7125 54.0897 39.9625C57.1822 34.5904 56.4686 27.8389 52.3215 23.232ZM30.9803 53.056C28.4934 53.0599 26.0846 52.1883 24.1761 50.5939L24.5119 50.4036L35.8147 43.8794C36.096 43.7144 36.3296 43.4791 36.4924 43.1966C36.6553 42.9141 36.7419 42.594 36.7437 42.2679V26.3319L41.5223 29.0961C41.57 29.1204 41.6032 29.1661 41.6118 29.2192V42.4245C41.5995 48.2909 36.8467 53.0437 30.9803 53.056ZM8.12836 43.2975C6.8812 41.1441 6.43341 38.6198 6.86376 36.1687L7.19933 36.3702L18.5135 42.8946C18.7935 43.0589 19.1122 43.1455 19.4367 43.1455C19.7613 43.1455 20.08 43.0589 20.36 42.8946L34.1808 34.9266V40.4437C34.1795 40.4723 34.1718 40.5002 34.1583 40.5254C34.1447 40.5506 34.1257 40.5724 34.1025 40.5892L22.6542 47.1919C17.5668 50.1228 11.067 48.38 8.12836 43.2975ZM5.15139 18.677C6.40721 16.5097 8.38939 14.8566 10.747 14.0104V27.4395C10.7428 27.7639 10.8257 28.0836 10.9871 28.3651C11.1485 28.6466 11.3825 28.8796 11.6647 29.0399L25.4184 36.9744L20.6398 39.7385C20.6139 39.7522 20.5851 39.7593 20.5559 39.7593C20.5266 39.7593 20.4978 39.7522 20.472 39.7385L9.04601 33.1473C3.96861 30.2043 2.22736 23.7096 5.15139 18.6212V18.677ZM44.4096 27.7978L30.6108 19.785L35.3785 17.032C35.4043 17.0183 35.4332 17.0111 35.4625 17.0111C35.4918 17.0111 35.5206 17.0183 35.5465 17.032L46.9725 23.6348C48.7195 24.6428 50.1437 26.127 51.0788 27.9141C52.014 29.7013 52.4214 31.7175 52.2536 33.7275C52.0858 35.7375 51.3497 37.6583 50.1312 39.2656C48.9127 40.873 47.2621 42.1005 45.3721 42.8049V29.3756C45.3622 29.0518 45.2682 28.736 45.0995 28.4594C44.9308 28.1828 44.693 27.9548 44.4096 27.7978ZM49.1656 20.6469L48.8299 20.4452L37.5382 13.8649C37.2566 13.6997 36.9359 13.6126 36.6094 13.6126C36.2828 13.6126 35.9622 13.6997 35.6806 13.8649L21.8707 21.8331V16.316C21.8677 16.288 21.8724 16.2597 21.8842 16.2341C21.8961 16.2085 21.9146 16.1865 21.9378 16.1706L33.3638 9.57898C35.115 8.57017 37.1172 8.08081 39.1363 8.16815C41.1553 8.25549 43.1078 8.91591 44.7653 10.0722C46.4228 11.2284 47.7169 12.8327 48.4961 14.6975C49.2753 16.5622 49.5075 18.6102 49.1654 20.602V20.6469H49.1656ZM19.2634 30.4276L14.4848 27.6746C14.4609 27.6602 14.4405 27.6407 14.425 27.6175C14.4095 27.5943 14.3993 27.5679 14.3951 27.5403V14.3687C14.3978 12.3481 14.9756 10.37 16.061 8.66567C17.1465 6.96134 18.6947 5.60123 20.5246 4.74437C22.3545 3.8875 24.3906 3.56929 26.3947 3.82693C28.3989 4.08458 30.2882 4.90743 31.842 6.19929L31.5062 6.3896L20.2034 12.9138C19.9221 13.0788 19.6885 13.3141 19.5257 13.5967C19.3629 13.8792 19.2763 14.1993 19.2745 14.5254L19.2634 30.4278V30.4276ZM21.8595 24.832L28.0147 21.2845L34.1808 24.8322V31.9271L28.037 35.4748L21.8709 31.9271L21.8595 24.832Z" fill="var(--fill-0, white)"/>
</g>
<defs>
<clipPath id="clip0_0_53">
<rect width="56" height="56.875" fill="white"/>
</clipPath>
</defs>
</svg>
