<svg preserveAspectRatio="none" width="100%" height="100%" overflow="visible" style="display: block;" viewBox="0 0 53.3333 52" fill="none" xmlns="http://www.w3.org/2000/svg">
<g id="Group">
<path id="Vector" d="M43.8889 0H9.44443C4.22842 0 0 4.22842 0 9.44443V42.5556C0 47.7716 4.22842 52 9.44443 52H43.8889C49.1049 52 53.3333 47.7716 53.3333 42.5556V9.44443C53.3333 4.22842 49.1049 0 43.8889 0Z" fill="var(--fill-0, #001E36)"/>
<path id="Vector_2" d="M12.0092 36.4648V13.6028C12.0092 13.4363 12.0808 13.3524 12.2239 13.3524C12.6051 13.3524 12.9532 13.3468 13.4782 13.3345C14.0026 13.3228 14.5691 13.3109 15.1776 13.2988C15.7859 13.2869 16.4299 13.2751 17.1096 13.263C17.7894 13.2512 18.4631 13.2453 19.131 13.245C20.9434 13.245 22.4699 13.4716 23.7105 13.9249C24.8297 14.3034 25.8503 14.9267 26.6981 15.7495C27.4168 16.4627 27.9721 17.3233 28.3259 18.2719C28.6606 19.1951 28.8302 20.1699 28.8269 21.1519C28.8269 23.0605 28.3856 24.6347 27.5031 25.8746C26.6147 27.1197 25.366 28.0624 23.9253 28.5759C22.4226 29.1365 20.7528 29.3267 18.9164 29.3267C18.3914 29.3267 18.0217 29.3208 17.8072 29.3088C17.5926 29.297 17.2707 29.2911 16.8413 29.2909V36.4291C16.8476 36.4728 16.8435 36.5174 16.8296 36.5594C16.8156 36.6013 16.7921 36.6394 16.7608 36.6706C16.7295 36.7018 16.6914 36.7254 16.6495 36.7393C16.6076 36.7533 16.563 36.7573 16.5193 36.7511H12.2597C12.0926 36.7511 12.0092 36.656 12.0092 36.4648ZM16.8413 17.6457V25.1024C17.151 25.1264 17.4372 25.1383 17.6999 25.1381H18.8806C19.7493 25.1353 20.6123 24.9975 21.4388 24.7297C22.1475 24.5192 22.7809 24.1094 23.2634 23.5491C23.7285 23.0007 23.961 22.2374 23.9611 21.2593C23.98 20.5672 23.7999 19.8843 23.4422 19.2915C23.0662 18.7183 22.5228 18.2749 21.8859 18.0214C21.0543 17.6982 20.1659 17.5461 19.2741 17.5742C18.7016 17.5742 18.1948 17.5801 17.7537 17.592C17.312 17.6044 17.0079 17.6223 16.8413 17.6457Z" fill="var(--fill-0, #31A8FF)"/>
<path id="Vector_3" d="M42.6603 23.7465C41.988 23.401 41.2719 23.1483 40.5316 22.9951C39.7158 22.808 38.8819 22.712 38.045 22.7089C37.5924 22.6967 37.1403 22.7509 36.7033 22.8699C36.4252 22.9318 36.178 23.0903 36.0056 23.3171C35.889 23.4986 35.827 23.7097 35.8268 23.9254C35.8333 24.1346 35.9088 24.3358 36.0415 24.4978C36.2504 24.7423 36.5058 24.9429 36.7927 25.0881C37.3028 25.3628 37.8285 25.6078 38.367 25.8216C39.5677 26.2236 40.7151 26.7701 41.7837 27.4495C42.5117 27.9089 43.1142 28.5421 43.5369 29.292C43.8923 30.0021 44.0703 30.7879 44.0557 31.5818C44.0771 32.6302 43.7775 33.6601 43.197 34.5335C42.5756 35.42 41.7124 36.1093 40.7104 36.5191C39.6248 36.996 38.2831 37.2346 36.6855 37.2347C35.6705 37.245 34.6572 37.149 33.6622 36.9485C32.8783 36.8047 32.1151 36.5644 31.3903 36.2329C31.3121 36.1925 31.247 36.1307 31.2027 36.0547C31.1583 35.9786 31.1365 35.8915 31.1399 35.8036V31.9396C31.1356 31.9018 31.1416 31.8635 31.1574 31.8288C31.1731 31.7941 31.198 31.7644 31.2294 31.7428C31.2601 31.7254 31.2954 31.7178 31.3305 31.7211C31.3657 31.7242 31.399 31.7381 31.4261 31.7607C32.2821 32.2654 33.2115 32.6336 34.181 32.8519C35.0354 33.0661 35.9119 33.1801 36.7927 33.1918C37.6274 33.1918 38.2416 33.0844 38.6353 32.8698C38.8131 32.7884 38.9635 32.6573 39.0683 32.4922C39.1731 32.3271 39.2278 32.1351 39.2257 31.9396C39.2257 31.6299 39.0468 31.3318 38.689 31.0451C38.3313 30.7589 37.6038 30.4131 36.5065 30.0075C35.3831 29.6166 34.318 29.075 33.3402 28.3976C32.6408 27.9112 32.0649 27.2679 31.6586 26.5192C31.3068 25.8143 31.1289 25.0352 31.1399 24.2474C31.1379 23.3007 31.3979 22.372 31.8912 21.564C32.4536 20.6743 33.2612 19.9661 34.2168 19.5247C35.2661 19.0003 36.5779 18.738 38.1524 18.7376C39.0744 18.7302 39.9956 18.7959 40.9072 18.9343C41.5674 19.0181 42.2128 19.1926 42.8252 19.4532C42.8737 19.4671 42.9184 19.4921 42.9556 19.5262C42.9929 19.5604 43.0217 19.6027 43.0398 19.6499C43.064 19.7373 43.076 19.8276 43.0756 19.9182V23.5318C43.0781 23.5738 43.0694 23.6158 43.0507 23.6535C43.0318 23.6912 43.0034 23.7232 42.9683 23.7465C42.9205 23.7703 42.8677 23.7827 42.8143 23.7827C42.7609 23.7827 42.7082 23.7703 42.6603 23.7465Z" fill="var(--fill-0, #31A8FF)"/>
</g>
</svg>
