<svg preserveAspectRatio="none" width="100%" height="100%" overflow="visible" style="display: block;" viewBox="0 0 24 24" fill="none" xmlns="http://www.w3.org/2000/svg">
<g id="uim:behance">
<path id="Vector" d="M10.396 11.519H10.288L10.528 11.387C11.0257 11.1306 11.4144 10.7035 11.623 10.184C11.812 9.63925 11.8618 9.05591 11.768 8.487C11.712 7.98393 11.5217 7.50519 11.2169 7.10103C10.9122 6.69687 10.5043 6.38219 10.036 6.19C9.42859 5.9276 8.77261 5.7964 8.111 5.805H2V18.159H7.582C8.11376 18.1595 8.64463 18.1153 9.169 18.027C9.74151 17.9457 10.2846 17.7227 10.749 17.3781C11.2134 17.0335 11.5843 16.5784 11.828 16.054C12.1924 15.3076 12.298 14.4611 12.128 13.648C12.0561 13.1705 11.8575 12.7211 11.5529 12.3464C11.2483 11.9718 10.8488 11.6857 10.396 11.518V11.519ZM4.9 7.959H7.306C7.71206 7.95882 8.11642 8.01125 8.509 8.115C8.72236 8.16537 8.91421 8.28218 9.05691 8.4486C9.19961 8.61502 9.28578 8.82246 9.303 9.041C9.3523 9.28722 9.3523 9.54078 9.303 9.787C9.26843 9.92606 9.20437 10.0561 9.11517 10.1682C9.02597 10.2804 8.91371 10.372 8.786 10.437C8.41329 10.6239 7.99974 10.7147 7.583 10.701H4.875L4.9 7.959ZM9.555 14.863C9.50084 15.1547 9.3551 15.4215 9.13894 15.6247C8.92279 15.8279 8.64748 15.9569 8.353 15.993C8.09146 16.0453 7.8257 16.0738 7.559 16.078H4.875V12.806H7.738C8.04535 12.8063 8.3504 12.859 8.64 12.962C8.89792 13.0436 9.12424 13.2031 9.2879 13.4185C9.45155 13.6339 9.54451 13.8946 9.554 14.165C9.58537 14.3966 9.58537 14.6314 9.554 14.863H9.555ZM21.994 14.057C22.006 14.033 22.006 14.009 21.97 14.033V12.698C21.9578 12.0862 21.8182 11.4837 21.56 10.929C21.1692 10.0954 20.4839 9.43573 19.636 9.077C18.7033 8.69367 17.6784 8.59316 16.689 8.788C15.9374 8.89276 15.2328 9.21509 14.6621 9.71526C14.0914 10.2154 13.6794 10.8716 13.477 11.603C13.1257 12.7253 13.0761 13.9204 13.333 15.068C13.453 15.7153 13.7532 16.3156 14.199 16.8C14.7674 17.3804 15.4824 17.7961 16.268 18.003C17.024 18.2094 17.8157 18.2503 18.589 18.123C19.561 18.0047 20.4559 17.534 21.104 16.8C21.4264 16.4562 21.6688 16.0454 21.814 15.597C21.8825 15.4943 21.9123 15.3706 21.898 15.248H19.54C19.515 15.2459 19.4899 15.2518 19.4684 15.2647C19.4469 15.2776 19.43 15.297 19.42 15.32C19.3021 15.5525 19.1322 15.7548 18.9236 15.9112C18.715 16.0676 18.4733 16.174 18.217 16.222C17.8597 16.2951 17.4913 16.2951 17.134 16.222C16.827 16.176 16.536 16.0556 16.2864 15.8711C16.0368 15.6867 15.8361 15.4439 15.702 15.164C15.5966 14.9355 15.5277 14.6919 15.498 14.442V14.057H21.994ZM15.642 12.325C15.695 12.1327 15.7594 11.9436 15.835 11.759C15.9623 11.4437 16.1797 11.173 16.46 10.9805C16.7403 10.7881 17.0711 10.6825 17.411 10.677C17.7661 10.6432 18.1242 10.6925 18.457 10.821C18.7586 10.9365 19.0232 11.1319 19.2222 11.3863C19.4213 11.6407 19.5474 11.9444 19.587 12.265V12.517L15.642 12.553C15.6377 12.4771 15.6377 12.4009 15.642 12.325ZM20.057 6.31H15.053V7.754L20.057 7.742V6.31Z" fill="var(--fill-0, #717171)"/>
</g>
</svg>
