<svg preserveAspectRatio="none" width="100%" height="100%" overflow="visible" style="display: block;" viewBox="0 0 16 15" fill="none" xmlns="http://www.w3.org/2000/svg">
<g id="Group">
<path id="Vector" fill-rule="evenodd" clip-rule="evenodd" d="M8.51 4.296V5.993C8.86538 5.45168 9.35521 5.0119 9.93157 4.71671C10.5079 4.42152 11.1511 4.28103 11.798 4.309C15.253 4.309 16 6.469 16 9.279V15H12.8V9.928C12.8 8.718 12.556 7.162 10.672 7.162C8.845 7.162 8.533 8.479 8.533 9.838V15H5.343V4.296H8.51ZM3.2 1.606C3.19961 1.923 3.10564 2.23284 2.92988 2.49665C2.75412 2.76047 2.50439 2.96653 2.212 3.089C1.91973 3.21048 1.59792 3.24226 1.28753 3.18029C0.977146 3.11832 0.692214 2.9654 0.469 2.741C0.245365 2.51646 0.0931142 2.23081 0.0313919 1.91997C-0.0303305 1.60913 0.00123221 1.28698 0.12211 0.994027C0.242988 0.701077 0.447785 0.450407 0.710747 0.273539C0.973708 0.0966713 1.28309 0.0015024 1.6 0C1.81062 -1.48089e-06 2.01917 0.0415816 2.21368 0.122364C2.4082 0.203147 2.58484 0.321539 2.7335 0.470748C2.88215 0.619958 2.99988 0.79705 3.07993 0.991864C3.15999 1.18668 3.20079 1.39538 3.2 1.606Z" fill="var(--fill-0, #717171)"/>
<path id="Vector_2" d="M3.2 4.309H0V15H3.2V4.309Z" fill="var(--fill-0, #717171)"/>
</g>
</svg>
